<svg width="15" height="13" viewBox="0 0 15 13" fill="none" xmlns="http://www.w3.org/2000/svg">
<path fill-rule="evenodd" clip-rule="evenodd" d="M11.9226 6.67278L0.570404 6.66773C0.257921 6.66759 0.00471306 6.41416 0.00485229 6.10168L0.00486755 6.09709C0.00756836 5.781 0.264032 5.52588 0.580139 5.52485L11.9083 5.48784L7.46463 1.01635C7.23485 0.785138 7.23115 0.412947 7.45627 0.177198C7.67472 -0.051569 8.03727 -0.0599298 8.26604 0.158525C8.26914 0.161493 8.27221 0.164496 8.27525 0.167534L13.8712 5.75744C14.0666 5.9526 14.0668 6.26918 13.8716 6.46455L13.87 6.4662L8.18913 12.1003C7.95858 12.329 7.58632 12.3275 7.35767 12.0969C7.35451 12.0937 7.35139 12.0905 7.34831 12.0873C7.1181 11.8443 7.12346 11.4621 7.36038 11.2257L11.9226 6.67278Z" fill="white"/>
</svg>
